# xmcd
#
# Track frame offsets:
#	150
#	14175
#	27290
#	42400
#	57273
#	72798
#	91638
#	111608
#	130273
#	148990
#	174668
#	188825
#	202325
#	217273
#	231765
#	246925
#	265683
#	286258
#	304818
#	323568
#
# Disc length: 4648 seconds
#
# Revision: 1
# Processed by: cddbd v1.5.1PL0 Copyright (c) Steve Scherf et al.
# Submitted via: CDex 1.50Beta5
#
DISCID=3a122614
DTITLE=さまざまなアーティスト - disc2
DYEAR=1900
DGENRE=
TTITLE0=遠い日の歌
TTITLE1=はばたこう明日へ
TTITLE2=この地球のどこかで
TTITLE3=明日へ
TTITLE4=青葉の歌
TTITLE5=春に
TTITLE6=友よ 北の空へ
TTITLE7=名づけられた葉
TTITLE8=山のいぶき
TTITLE9=親知らず子知らず
TTITLE10=遠い日の歌(piano)
TTITLE11=はばたこう明日へ(piano)
TTITLE12=この地球のどこかで(piano)
TTITLE13=明日へ(piano)
TTITLE14=青葉の歌(piano)
TTITLE15=春に(piano)
TTITLE16=友よ 北の空へ(piano)
TTITLE17=名づけられた葉(piano)
TTITLE18=山のいぶき(piano)
TTITLE19=親知らず子知らず(piano)
EXTD=
EXTT0=
EXTT1=
EXTT2=
EXTT3=
EXTT4=
EXTT5=
EXTT6=
EXTT7=
EXTT8=
EXTT9=
EXTT10=
EXTT11=
EXTT12=
EXTT13=
EXTT14=
EXTT15=
EXTT16=
EXTT17=
EXTT18=
EXTT19=
PLAYORDER=
